<?xml version="1.0" standalone="no"?>
<!DOCTYPE svg PUBLIC "-//W3C//DTD SVG 20010904//EN"
 "http://www.w3.org/TR/2001/REC-SVG-20010904/DTD/svg10.dtd">
<svg version="1.0" xmlns="http://www.w3.org/2000/svg"
 width="835.000000pt" height="835.000000pt" viewBox="0 0 835.000000 835.000000"
 preserveAspectRatio="xMidYMid meet">
<metadata>
Created by potrace 1.11, written by Peter Selinger 2001-2013
</metadata>
<g transform="translate(0.000000,835.000000) scale(0.100000,-0.100000)"
fill="#000000" stroke="none">
<path d="M3968 8345 c-2 -1 -48 -5 -103 -9 -55 -4 -113 -9 -130 -11 -16 -2
-70 -9 -120 -15 -71 -9 -233 -38 -365 -65 -191 -40 -557 -159 -738 -242 -568
-257 -1012 -575 -1417 -1014 -345 -374 -643 -862 -822 -1344 -47 -126 -111
-323 -119 -365 -3 -14 -12 -48 -20 -76 -8 -28 -16 -60 -18 -70 -2 -11 -13 -64
-25 -119 -25 -124 -38 -203 -47 -280 -3 -33 -8 -62 -9 -65 -2 -3 -6 -48 -10
-100 -4 -52 -9 -111 -11 -130 -5 -50 -5 -466 0 -520 3 -25 8 -83 11 -130 4
-47 8 -92 10 -100 1 -8 6 -40 9 -70 4 -30 11 -77 16 -105 5 -27 11 -63 14 -80
24 -165 147 -610 203 -735 3 -8 7 -17 8 -20 5 -14 22 -55 63 -150 57 -135 144
-308 217 -435 53 -92 201 -323 214 -335 4 -3 38 -48 77 -100 39 -52 87 -113
105 -135 100 -116 175 -199 257 -280 146 -146 171 -169 360 -327 52 -43 213
-159 313 -225 424 -280 942 -495 1429 -592 174 -35 211 -41 340 -56 30 -4 66
-9 80 -11 153 -24 738 -24 865 0 11 2 52 7 90 11 39 5 77 9 85 10 17 2 95 15
125 21 11 2 34 6 50 9 17 3 50 10 75 15 25 5 56 12 70 14 82 16 281 73 436
127 348 120 680 286 984 492 89 61 269 195 290 217 8 9 29 26 45 39 107 81
331 302 473 466 105 121 292 367 292 384 0 6 3 11 8 11 4 0 20 21 36 48 16 26
44 70 62 97 120 187 290 542 379 795 73 204 155 518 179 685 7 49 18 119 21
137 2 9 7 48 10 85 4 37 8 79 10 92 21 132 21 598 0 789 -3 23 -7 62 -10 87
-11 102 -18 145 -36 240 -10 55 -21 114 -23 130 -3 17 -15 68 -27 115 -11 47
-22 92 -24 100 -15 65 -64 222 -118 370 -294 815 -874 1547 -1612 2035 -289
191 -535 314 -910 455 -64 24 -251 83 -302 95 -18 4 -93 23 -123 30 -70 18
-247 53 -330 65 -127 18 -188 26 -300 36 -49 5 -538 13 -542 9z"/>
</g>
</svg>
